<?xml version="1.0" encoding="utf-8"?>
<!-- Generator: Adobe Illustrator 24.3.0, SVG Export Plug-In . SVG Version: 6.00 Build 0)  -->
<svg version="1.1" id="Layer_1" xmlns="http://www.w3.org/2000/svg" xmlns:xlink="http://www.w3.org/1999/xlink" x="0px" y="0px"
	 viewBox="0 0 500 156" style="enable-background:new 0 0 500 156;" xml:space="preserve">
<style type="text/css">
	.st0{fill:#FFFFFF;}
</style>
<g>
	<path class="st0" d="M161.1,41.7c-7.9,0.3-15.4,16.9-20.1,29.7c0.2-11.5,0.7-20.6,0.8-23.6c0.2-1.3-0.3-2.9-1.2-3.9
		c-1-1-2.5-2-5.4-2.2c-6.9-0.3-7.5,5.2-7.5,5.2s-8.9,102.1,10.6,108.2c0,0,13.8,3.7,16.9-4.4c0,0,10.4-17-14.6-50.9
		c0-2.2,0-4.2,0-6.4c4,14.5,13.8,14.8,13.8,14.8c18.3,2.7,23-26,23-26C182.4,56.7,173.9,41.4,161.1,41.7z M149.7,148.1
		c-5.5-0.8-7.9-17.4-8.7-36.7C157.6,138.5,149.7,148.1,149.7,148.1z M163,79.5c0,0-3.9,20.7-8.4,21.7c-5.5,1-10.1-10.3-11.2-18.7
		c4.4-13.7,11.6-33.4,17.4-32.7C160.8,49.8,167,55,163,79.5z"/>
	<path class="st0" d="M499.9,67.5c-0.3-2.2-4.2-1.3-4.2-1.3c-7,0.8-13.3,3.2-18.4,6.2c-1.3-3.5-2.5-6.7-3.4-9.4
		c5.7-5.6,9.4-13.1,6.2-18c-4.2-6.9-12.9-3.4-12.9-3.4s-13.9,4.2-11.9,17.7c0,0,0.2,2.8,1.4,7.2c-1.1,0.8-1.4,2.6-1.4,2.6
		c-9.1,37.6-29.4,39.1-29.4,39.1c-5.5-0.7-8.7-7.6-9.7-16.4c8.1-2.5,19.6-9.1,22-24.8c3.4-22.4-11.7-24.3-11.7-24.3
		c-18.5-2.7-24,18.4-24,18.4c-0.6,2-1.2,4.1-1.7,6.4c-0.4,0.7-0.5,1.5-0.5,1.5c-9.1,37.6-29.4,39.1-29.4,39.1
		c-5.5-0.7-8.7-7.6-9.7-16.4c8.1-2.5,19.6-9.1,22-24.8c3.4-22.4-11.7-24.3-11.7-24.3c-18.5-2.7-24,18.4-24,18.4
		c-0.7,2.1-1.3,4.4-1.8,6.8c-0.5,0.7-0.8,1.4-0.8,1.4c-5,10.5-13.6,8.3-12.6,5.2c2.2-7.6,2-13.8,2-13.8c-0.3-9.1-1.2-18.5-11.2-18.7
		c-8.9,0-15.1,18.4-18.8,33.4c0.2-2.4,0.3-5.9,0.7-10.3c0.7-7.9,1.7-14.5,2.3-18c0.3-2-0.5-4.2-2.3-5.2c-3.2-2-6.4-1.9-8.9-1.2
		c-2.5,0.7-4.5,2.9-4.9,5.4c-1.5,11.6-1.6,23.2-1.5,26.7c-8.8,34.2-18.1,35.5-18.1,35.5c-6-0.7-4.5-52.3-3-82.6
		c7.2-0.7,14.6-1.2,22,0c2.2,0.3,1.3-2.7,1.3-2.7c-0.2-1.3-1-2.5-2-2.7c-7-1.2-14.1-0.7-21.1,0c0.5-6.7,0.8-12,1-14.5
		c0-1.2-0.3-2.4-1.2-3c-2.5-2.5-6.4-3.4-9.7-2.4c-2.5,0.8-4,3-4.2,5.6c-0.3,3.7-0.7,9.3-1,15.8c-4.5,0.2-9.1,0-13.6-0.7
		c-2-0.3-1.3,2.7-1.3,2.7c0,1.3,1,2.5,1.8,2.7c4.2,0.7,8.6,0.7,12.7,0.5c-1.7,33.9-2,88.2,17.4,86.5c9-0.8,15.5-14.2,19.6-25.9
		c0.5,7.4,1.4,14.7,2.7,21.5c0.7,3.4,4.4,5.1,7.9,4.6c2-0.3,3.9-1.3,5-2.9c0.8-1.2,1.2-2.5,1-3.9c-0.2-1.9-0.5-3.7-0.7-5.6
		c1-18.7,7.5-39.8,12.4-48c0,0-4.4,28.8,15.4,29.2c4,0.1,7.5-1.4,10.1-3.5c-0.7,17.1,5,35.4,27.3,34.6c15.2-0.2,23.6-13.1,28.1-24.9
		c1.7,13.7,8.9,25.6,26.9,24.9c23-0.3,30.4-29.6,32.3-40.3c1.3,3.4,3.1,7.1,5.4,11c-8.4,10.5-11.4,22.6-9.6,27.3
		c3.4,8.9,17.9,12.1,27.5,0.7c7.9-9.3,1.3-24.6-2.9-34.6c3.4-2.4,7.7-4.6,17.6-6.6C497.1,71,500.6,70.4,499.9,67.5z M362,73.2
		c0,0,4.5-24.1,9.6-24.3c0,0,8.1,5.6,5,19.2c-2.3,10.5-10.2,15.5-15.8,17.4C360.9,81.5,361.2,77.3,362,73.2z M417.1,73.2
		c0,0,4.5-24.1,9.6-24.3c0,0,8.1,5.6,5,19.2c-2.3,10.5-10.2,15.5-15.8,17.4C415.9,81.5,416.2,77.3,417.1,73.2z M470.7,47.1
		c0,0,2.7-0.7,3.7,2.5c0.5,1.9,0.3,4.9-2.3,7.9C469.2,47.8,470.7,47.1,470.7,47.1z M472.7,108.1c0,0-3.9,6.2-9.2,4.4
		c0,0-4.2-11.8,4-23.6C469.7,91.9,475.8,101.4,472.7,108.1z"/>
	<path class="st0" d="M228.5,96.9c-8.3,9.7-16.4,9.7-16.4,9.7c-9.4-2.7-12.1-17.4-9.1-33.3c0,0,5-26.1,9.9-26.3
		c4.2-0.2,7.4,9.4,8.6,18c0.3,1.5,2.2,1.7,2.9,0.5c5.9-13.1,2.9-21.9-11.6-24.8c-18.3-2.7-24.3,20.4-24.3,20.4
		c-5.9,18.2-6.5,53.6,24.2,52.4c10.6-0.1,17.8-6.4,22.8-14.1C234.6,96.9,231.7,94.9,228.5,96.9z"/>
</g>
<g id="_x38_dzTUT.tif">
	<g>
		<g>
			<path class="st0" d="M40.5,21.3c0.9,0.5,1.8,0.8,2.5,1.5c2.2,2,2.1,5.6-0.2,7.5c-0.2,0.2-0.4,0.3-0.6,0.6
				c0.2,0.3,0.3,0.5,0.5,0.7c1,1.4,1.9,3,3.1,4.3c1.4,1.5,1.3,2.7,0.3,4.5c-4.1,7.1-9.5,12.8-17,16c-2.6,1.1-5.4,1.7-8.1,2.5
				c-0.3,0.1-0.8-0.1-1-0.4c-0.8-0.8-1-2.2-0.5-3.2c0.2-0.4,0.5-0.9,0.8-1.3c5.3-7.4,10.7-14.8,16-22.2c0.2-0.3,0.4-0.6,0.6-0.9
				c-1.4-1-2.3-2.3-2.4-4c-0.2-2.2,1.1-4.3,3.1-5.2c0.3-0.1,0.6-0.3,0.9-0.4C39.2,21.3,39.9,21.3,40.5,21.3z"/>
			<path class="st0" d="M15.6,79.7c-0.7,0-1.2,0-1.7,0c-2.6-0.2-3.8-2.6-2.4-4.8c2.1-3.2,4.3-6.4,6.6-9.6
				c11.9,11.3,25,20.1,41.7,22.6c-0.3,0.2-0.5,0.4-0.7,0.6c-12.9,8.8-27,14.7-42.3,17.5c-5.1,0.9-10.2,1.4-15.3,1.6
				c-0.8,0-1.1-0.3-1.3-1c-0.3-1.1,0.1-2,0.7-2.9C5.5,96,10.2,88.4,15,80.8C15.2,80.5,15.3,80.1,15.6,79.7z M29.1,85.5
				c-2.2,0-4,1.8-4,4c0,2.2,1.8,4,4,4c2.2,0,3.9-1.8,4-4C33,87.2,31.3,85.5,29.1,85.5z"/>
			<path class="st0" d="M57.3,59.6c1.3,1.9,2.6,3.8,3.9,5.7c2.1,3,4.2,6.1,6.3,9.1c0.8,1.1,1.2,2.3,0.5,3.6
				c-0.7,1.3-1.9,1.7-3.3,1.6c-0.3,0-0.6,0-1.1,0c0.5,0.8,0.9,1.5,1.5,2.5c-2.2-0.2-4.1-0.3-6.1-0.6c-8.7-1.4-16.4-5-23.6-9.9
				c-3.1-2.1-6-4.6-9-6.9c-0.3-0.2-0.5-0.4-0.8-0.8c11.6-3.1,19.8-10.4,25.7-20.5c0.3,0.3,0.5,0.6,0.7,0.8c2.3,3.2,4.6,6.3,6.8,9.5
				C60.7,56.6,60.3,58.2,57.3,59.6z M45.2,72.1c2.2,0,4-1.8,4-4c0-2.2-1.8-4-3.9-4c-2.2,0-4,1.8-4,4C41.3,70.4,43,72.1,45.2,72.1z"
				/>
			<path class="st0" d="M69,88.5c0.6,0.9,1,1.7,1.5,2.5c2.6,4.2,5.2,8.5,7.9,12.7c0.7,1.1,1.1,2.3,0.4,3.6c-0.7,1.3-1.9,1.6-3.2,1.6
				c-8.6,0-17.2,0-25.8,0c-0.4,0-0.8,0-1.3,0c0,0.4,0,0.8,0,1.1c0,3.4,0,6.9,0,10.3c0,2.5-1.1,3.6-3.6,3.6c-3.5,0-7,0-10.5,0
				c-2.3,0-3.4-1.1-3.4-3.4c0-3.8,0-7.7,0-11.6C44.7,104.3,57.5,97.7,69,88.5z"/>
		</g>
	</g>
</g>
</svg>
